<svg xmlns="http://www.w3.org/2000/svg" viewBox="0 0 140 160" role="img" aria-labelledby="title">
  <title id="title">Capi pensando</title>
  <ellipse cx="70" cy="149" rx="35" ry="5" fill="#20362f" opacity=".12"/>
  <g id="capi-question">
    <path d="M111 22c0-8 16-9 17 1 1 7-8 8-8 14M120 46h.01" fill="none" stroke="#f9faf6" stroke-width="10" stroke-linecap="round"/>
    <path d="M111 22c0-8 16-9 17 1 1 7-8 8-8 14M120 46h.01" fill="none" stroke="#20362f" stroke-width="5" stroke-linecap="round"/>
  </g>
  <rect x="47" y="132" width="17" height="17" rx="8" fill="#20362f"/>
  <rect x="76" y="132" width="17" height="17" rx="8" fill="#20362f"/>
  <rect x="35" y="20" width="70" height="124" rx="35" fill="#20362f"/>
  <path d="M35 62v-7a35 35 0 0 1 70 0v14c-22 8-48 8-70 0z" fill="#d5eea4"/>
  <circle cx="52" cy="51" r="4" fill="#14221d"/><circle cx="88" cy="51" r="4" fill="#14221d"/>
  <path d="M62 62q8-5 16 0" fill="none" stroke="#14221d" stroke-width="4" stroke-linecap="round"/>
  <path d="M60 98l-8 7 8 7M80 98l8 7-8 7M74 94l-8 22" fill="none" stroke="#d5eea4" stroke-width="4" stroke-linecap="round" stroke-linejoin="round"/>
  <g id="capi-arms">
    <path d="M37 80C20 89 18 106 26 117M103 82c14 1 20-9 15-22" fill="none" stroke="#20362f" stroke-width="11" stroke-linecap="round" stroke-linejoin="round"/>
    <circle cx="116" cy="58" r="6" fill="#20362f"/>
  </g>
</svg>
